<mxfile host="app.diagrams.net" agent="Mozilla/5.0 (X11; Ubuntu; Linux x86_64; rv:131.0) Gecko/20100101 Firefox/131.0" version="24.7.17">
  <diagram name="Page-1" id="ALjzpOeoeQQ6W-tBkplQ">
    <mxGraphModel dx="954" dy="628" grid="1" gridSize="10" guides="1" tooltips="1" connect="1" arrows="1" fold="1" page="1" pageScale="1" pageWidth="850" pageHeight="1100" math="0" shadow="0">
      <root>
        <mxCell id="0" />
        <mxCell id="1" parent="0" />
        <mxCell id="FIMf0m5eS3iOuZHON0fh-1" value="" style="whiteSpace=wrap;html=1;aspect=fixed;" parent="1" vertex="1">
          <mxGeometry x="200" y="280" width="80" height="80" as="geometry" />
        </mxCell>
        <mxCell id="FIMf0m5eS3iOuZHON0fh-2" value="" style="endArrow=none;html=1;rounded=0;entryX=0.5;entryY=0;entryDx=0;entryDy=0;exitX=0.5;exitY=1;exitDx=0;exitDy=0;" parent="1" source="FIMf0m5eS3iOuZHON0fh-1" target="FIMf0m5eS3iOuZHON0fh-1" edge="1">
          <mxGeometry width="50" height="50" relative="1" as="geometry">
            <mxPoint x="440" y="450" as="sourcePoint" />
            <mxPoint x="490" y="400" as="targetPoint" />
          </mxGeometry>
        </mxCell>
        <mxCell id="FIMf0m5eS3iOuZHON0fh-5" value="" style="endArrow=classic;html=1;rounded=0;strokeColor=default;strokeWidth=1;startArrow=oval;startFill=1;entryX=0;entryY=0.5;entryDx=0;entryDy=0;" parent="1" edge="1" target="FIMf0m5eS3iOuZHON0fh-10">
          <mxGeometry width="50" height="50" relative="1" as="geometry">
            <mxPoint x="260" y="320" as="sourcePoint" />
            <mxPoint x="510" y="400" as="targetPoint" />
            <Array as="points">
              <mxPoint x="360" y="440" />
              <mxPoint x="440" y="440" />
            </Array>
          </mxGeometry>
        </mxCell>
        <mxCell id="FIMf0m5eS3iOuZHON0fh-7" value="" style="whiteSpace=wrap;html=1;aspect=fixed;" parent="1" vertex="1">
          <mxGeometry x="360" y="280" width="80" height="80" as="geometry" />
        </mxCell>
        <mxCell id="FIMf0m5eS3iOuZHON0fh-8" value="" style="endArrow=none;html=1;rounded=0;entryX=0.5;entryY=0;entryDx=0;entryDy=0;exitX=0.5;exitY=1;exitDx=0;exitDy=0;" parent="1" source="FIMf0m5eS3iOuZHON0fh-7" target="FIMf0m5eS3iOuZHON0fh-7" edge="1">
          <mxGeometry width="50" height="50" relative="1" as="geometry">
            <mxPoint x="600" y="450" as="sourcePoint" />
            <mxPoint x="650" y="400" as="targetPoint" />
          </mxGeometry>
        </mxCell>
        <mxCell id="FIMf0m5eS3iOuZHON0fh-9" value="" style="endArrow=classic;html=1;rounded=0;strokeColor=default;strokeWidth=1;startArrow=oval;startFill=1;entryX=0;entryY=0.5;entryDx=0;entryDy=0;" parent="1" edge="1" target="_jpljarc9cC-QHB8eMNK-5">
          <mxGeometry width="50" height="50" relative="1" as="geometry">
            <mxPoint x="420" y="320" as="sourcePoint" />
            <mxPoint x="710" y="450" as="targetPoint" />
            <Array as="points">
              <mxPoint x="520" y="440" />
              <mxPoint x="600" y="440" />
            </Array>
          </mxGeometry>
        </mxCell>
        <mxCell id="FIMf0m5eS3iOuZHON0fh-10" value="" style="whiteSpace=wrap;html=1;aspect=fixed;" parent="1" vertex="1">
          <mxGeometry x="520" y="280" width="80" height="80" as="geometry" />
        </mxCell>
        <mxCell id="FIMf0m5eS3iOuZHON0fh-11" value="" style="endArrow=none;html=1;rounded=0;entryX=0.5;entryY=0;entryDx=0;entryDy=0;exitX=0.5;exitY=1;exitDx=0;exitDy=0;" parent="1" source="FIMf0m5eS3iOuZHON0fh-10" target="FIMf0m5eS3iOuZHON0fh-10" edge="1">
          <mxGeometry width="50" height="50" relative="1" as="geometry">
            <mxPoint x="460" y="470" as="sourcePoint" />
            <mxPoint x="510" y="420" as="targetPoint" />
          </mxGeometry>
        </mxCell>
        <mxCell id="FIMf0m5eS3iOuZHON0fh-12" value="" style="endArrow=classic;html=1;rounded=0;strokeColor=default;strokeWidth=1;startArrow=oval;startFill=1;" parent="1" edge="1">
          <mxGeometry width="50" height="50" relative="1" as="geometry">
            <mxPoint x="580" y="320" as="sourcePoint" />
            <mxPoint x="680" y="320" as="targetPoint" />
          </mxGeometry>
        </mxCell>
        <mxCell id="FIMf0m5eS3iOuZHON0fh-14" value="" style="endArrow=classic;html=1;rounded=0;strokeColor=default;strokeWidth=1;startArrow=oval;startFill=1;" parent="1" edge="1">
          <mxGeometry width="50" height="50" relative="1" as="geometry">
            <mxPoint x="100" y="319.5" as="sourcePoint" />
            <mxPoint x="200" y="319.5" as="targetPoint" />
          </mxGeometry>
        </mxCell>
        <mxCell id="FIMf0m5eS3iOuZHON0fh-16" value="" style="endArrow=classic;html=1;rounded=0;" parent="1" edge="1">
          <mxGeometry width="50" height="50" relative="1" as="geometry">
            <mxPoint x="239.5" y="200" as="sourcePoint" />
            <mxPoint x="239.5" y="260" as="targetPoint" />
          </mxGeometry>
        </mxCell>
        <mxCell id="FIMf0m5eS3iOuZHON0fh-17" value="&lt;div style=&quot;font-size: 15px;&quot;&gt;prev&lt;sub style=&quot;font-size: 15px;&quot;&gt;A&lt;/sub&gt;&lt;/div&gt;" style="text;html=1;align=center;verticalAlign=middle;resizable=0;points=[];autosize=1;strokeColor=none;fillColor=none;fontSize=15;" parent="1" vertex="1">
          <mxGeometry x="210" y="170" width="60" height="30" as="geometry" />
        </mxCell>
        <mxCell id="FIMf0m5eS3iOuZHON0fh-18" value="" style="endArrow=classic;html=1;rounded=0;" parent="1" edge="1">
          <mxGeometry width="50" height="50" relative="1" as="geometry">
            <mxPoint x="379.5" y="200" as="sourcePoint" />
            <mxPoint x="379.5" y="260" as="targetPoint" />
          </mxGeometry>
        </mxCell>
        <mxCell id="FIMf0m5eS3iOuZHON0fh-19" value="&lt;div style=&quot;font-size: 15px;&quot;&gt;&lt;span style=&quot;font-size: 15px;&quot;&gt;curr&lt;/span&gt;&lt;span style=&quot;font-size: 15px;&quot;&gt;&lt;sub style=&quot;font-size: 15px;&quot;&gt;A&lt;/sub&gt;&lt;/span&gt;&lt;/div&gt;" style="text;html=1;align=center;verticalAlign=middle;resizable=0;points=[];autosize=1;strokeColor=none;fillColor=none;fontSize=15;" parent="1" vertex="1">
          <mxGeometry x="350" y="170" width="60" height="30" as="geometry" />
        </mxCell>
        <mxCell id="FIMf0m5eS3iOuZHON0fh-20" value="" style="endArrow=classic;html=1;rounded=0;" parent="1" edge="1">
          <mxGeometry width="50" height="50" relative="1" as="geometry">
            <mxPoint x="424.5" y="200" as="sourcePoint" />
            <mxPoint x="424.5" y="260" as="targetPoint" />
          </mxGeometry>
        </mxCell>
        <mxCell id="FIMf0m5eS3iOuZHON0fh-21" value="&lt;div style=&quot;font-size: 15px;&quot;&gt;prev&lt;sub style=&quot;font-size: 15px;&quot;&gt;B&lt;/sub&gt;&lt;/div&gt;" style="text;html=1;align=center;verticalAlign=middle;resizable=0;points=[];autosize=1;strokeColor=none;fillColor=none;fontSize=15;" parent="1" vertex="1">
          <mxGeometry x="395" y="170" width="60" height="30" as="geometry" />
        </mxCell>
        <mxCell id="FIMf0m5eS3iOuZHON0fh-22" value="" style="endArrow=classic;html=1;rounded=0;" parent="1" edge="1">
          <mxGeometry width="50" height="50" relative="1" as="geometry">
            <mxPoint x="559.5" y="200" as="sourcePoint" />
            <mxPoint x="559.5" y="260" as="targetPoint" />
          </mxGeometry>
        </mxCell>
        <mxCell id="FIMf0m5eS3iOuZHON0fh-23" value="&lt;div style=&quot;font-size: 15px;&quot;&gt;&lt;span style=&quot;font-size: 15px;&quot;&gt;curr&lt;/span&gt;&lt;span style=&quot;font-size: 15px;&quot;&gt;&lt;sub style=&quot;font-size: 15px;&quot;&gt;B&lt;/sub&gt;&lt;/span&gt;&lt;/div&gt;" style="text;html=1;align=center;verticalAlign=middle;resizable=0;points=[];autosize=1;strokeColor=none;fillColor=none;fontSize=15;" parent="1" vertex="1">
          <mxGeometry x="530" y="170" width="60" height="30" as="geometry" />
        </mxCell>
        <mxCell id="FIMf0m5eS3iOuZHON0fh-24" value="ThreadA: remove(key&lt;sub&gt;A&lt;/sub&gt;)" style="text;html=1;align=center;verticalAlign=middle;whiteSpace=wrap;rounded=0;fontSize=16;" parent="1" vertex="1">
          <mxGeometry x="395" y="60" width="170" height="30" as="geometry" />
        </mxCell>
        <mxCell id="FIMf0m5eS3iOuZHON0fh-25" value="ThreadB: remove(key&lt;sub&gt;B&lt;/sub&gt;) " style="text;html=1;align=center;verticalAlign=middle;whiteSpace=wrap;rounded=0;fontSize=16;" parent="1" vertex="1">
          <mxGeometry x="395" y="100" width="170" height="30" as="geometry" />
        </mxCell>
        <mxCell id="FIMf0m5eS3iOuZHON0fh-26" value="v&lt;sub style=&quot;font-size: 14px;&quot;&gt;1&lt;/sub&gt;" style="text;html=1;align=center;verticalAlign=middle;whiteSpace=wrap;rounded=0;fontSize=14;" parent="1" vertex="1">
          <mxGeometry x="190" y="305" width="60" height="30" as="geometry" />
        </mxCell>
        <mxCell id="FIMf0m5eS3iOuZHON0fh-27" value="v&lt;sub style=&quot;font-size: 14px;&quot;&gt;2&lt;/sub&gt;" style="text;html=1;align=center;verticalAlign=middle;whiteSpace=wrap;rounded=0;fontSize=14;" parent="1" vertex="1">
          <mxGeometry x="350" y="305" width="60" height="30" as="geometry" />
        </mxCell>
        <mxCell id="FIMf0m5eS3iOuZHON0fh-28" value="v&lt;sub style=&quot;font-size: 14px;&quot;&gt;3&lt;/sub&gt;" style="text;html=1;align=center;verticalAlign=middle;whiteSpace=wrap;rounded=0;fontSize=14;" parent="1" vertex="1">
          <mxGeometry x="510" y="305" width="60" height="30" as="geometry" />
        </mxCell>
        <mxCell id="_jpljarc9cC-QHB8eMNK-5" value="" style="whiteSpace=wrap;html=1;aspect=fixed;" vertex="1" parent="1">
          <mxGeometry x="680" y="280" width="80" height="80" as="geometry" />
        </mxCell>
        <mxCell id="_jpljarc9cC-QHB8eMNK-6" value="" style="endArrow=none;html=1;rounded=0;entryX=0.5;entryY=0;entryDx=0;entryDy=0;exitX=0.5;exitY=1;exitDx=0;exitDy=0;" edge="1" parent="1" source="_jpljarc9cC-QHB8eMNK-5" target="_jpljarc9cC-QHB8eMNK-5">
          <mxGeometry width="50" height="50" relative="1" as="geometry">
            <mxPoint x="620" y="470" as="sourcePoint" />
            <mxPoint x="670" y="420" as="targetPoint" />
          </mxGeometry>
        </mxCell>
        <mxCell id="_jpljarc9cC-QHB8eMNK-7" value="" style="endArrow=classic;html=1;rounded=0;strokeColor=default;strokeWidth=1;startArrow=oval;startFill=1;" edge="1" parent="1">
          <mxGeometry width="50" height="50" relative="1" as="geometry">
            <mxPoint x="740" y="320" as="sourcePoint" />
            <mxPoint x="840" y="320" as="targetPoint" />
          </mxGeometry>
        </mxCell>
        <mxCell id="_jpljarc9cC-QHB8eMNK-8" value="v&lt;sub style=&quot;font-size: 14px;&quot;&gt;4&lt;/sub&gt;" style="text;html=1;align=center;verticalAlign=middle;whiteSpace=wrap;rounded=0;fontSize=14;" vertex="1" parent="1">
          <mxGeometry x="670" y="305" width="60" height="30" as="geometry" />
        </mxCell>
      </root>
    </mxGraphModel>
  </diagram>
</mxfile>
